<svg width="61.7" height="61.7" xmlns="http://www.w3.org/2000/svg">
    <path fill="#1e8b9e"
          d="m30.4,13.2c-16.4,10.7 -16.9,29.9 -20.5,38.6c-0.4,1 -1.7,1.9 -2.6,2.1c-4.1,0.8 -6.2,2.7 -7.3,4.2l1.5,1c1,-1.5 3.4,-3.4 8.8,-4c4.3,-0.5 23.4,-2.1 33.3,-14.4c11.4,-14.2 11.4,-32.5 18.1,-38.7c0,0 -18.4,2.7 -31.3,11.2zm10.3,3.8c-3.6,3.2 -6.7,6.8 -9.4,10.7c-2.8,3.9 -5.1,8.1 -7.6,12.4c-1.2,2.1 -2.5,4.3 -4,6.3c-1.5,2 -3.4,4 -5.8,4.8c2,-1.5 3.2,-3.6 4.3,-5.8c1.1,-2.2 2,-4.4 3,-6.7c1.9,-4.5 4.2,-9.1 7.1,-13.2c0.7,-1 1.5,-2 2.3,-3c0.8,-0.9 1.6,-1.9 2.5,-2.9c1.8,-1.8 3.7,-3.5 5.8,-5c4.1,-2.9 8.7,-5.2 13.6,-6.4c-4.3,2.7 -8.2,5.6 -11.8,8.8z"/>
</svg>
