<svg xmlns="http://www.w3.org/2000/svg" width="32" height="32" viewBox="0 0 32 32">
    <title>translation</title>
    <rect data-element="frame" x="0" y="0" width="32" height="32" rx="1" ry="1" stroke="none" fill="#208a9e"></rect>
    <g transform="translate(4.800000000000001 4.800000000000001) scale(0.7)" fill="#ffffff">
        <path d="M30,11H16a2,2,0,0,0-2,2V26a2,2,0,0,0,2,2h7l6,4V28h1a2,2,0,0,0,2-2V13A2,2,0,0,0,30,11ZM25.365,24l-.673-2.209H21.308L20.635,24h-2.12l3.276-9.318H24.2L27.485,24Z" fill="#ffffff"></path>
        <path d="M23,16.123q-.209.811-1.2,4.018h2.419q-.933-3-1.05-3.4T23,16.123Z" fill="#ffffff"></path>
        <path
            d="M16,0H2A2,2,0,0,0,0,2V15a2,2,0,0,0,2,2H3v4l6-4h3V13.153a12.758,12.758,0,0,1-2.923-1.566A14.1,14.1,0,0,1,4.7,13.611a6.4,6.4,0,0,0-1.056-1.947,12.024,12.024,0,0,0,3.906-1.441A9.606,9.606,0,0,1,6.129,8.209a9.72,9.72,0,0,1-.76-1.881c-.649,0-1.023.022-1.573.067V4.4a13.358,13.358,0,0,0,1.6.078H7.823V3.82a3.323,3.323,0,0,0-.066-.682H9.968a3.378,3.378,0,0,0-.066.671V4.48h2.619A13.219,13.219,0,0,0,14.116,4.4V6.4a15.581,15.581,0,0,0-1.563-.067,8.548,8.548,0,0,1-.748,2.123,8.027,8.027,0,0,1-1.221,1.783A9.416,9.416,0,0,0,12.5,11.1,3.987,3.987,0,0,1,16,9h2V2A2,2,0,0,0,16,0Z"></path>
        <path d="M9.022,8.99A6.2,6.2,0,0,0,10.4,6.328H7.482A6.264,6.264,0,0,0,9.022,8.99Z"></path>
    </g>
</svg>
